#!OML:ASF E:\inclinewalkrobotboard\Project 1\Capture day 1\Session 1\subject1.ASF
:FULLY-SPECIFIED
:DEGREES
320
root 9.44097 16.5091 0.485064 -137.457 -55.7793 -201.431
lowerback 6.79987 3.04431 3.59578
upperback 0.857123 4.30025 1.41665
thorax -2.76317 2.08099 -0.932399
lowerneck -3.74711 9.8824 3.71547
upperneck -3.52656 12.806 -19.7289
head 1.19139 6.19609 -6.12059
rclavicle 2.8625e-014 -3.18055e-015
rhumerus -17.3268 41.5178 -103.265
rradius 96.8304
rwrist 5.95537
rhand -17.9243 -34.1374
rfingers 7.12502
rthumb 8.34337 -63.9526
lclavicle 2.8625e-014 -3.18055e-015
lhumerus -42.5583 42.3164 43.6269
lradius 52.7131
lwrist 39.6644
lhand -53.4413 -31.7277
lfingers 7.12502
lthumb -25.8884 -3.47011
rfemur -37.3273 4.53674 -2.67723
rtibia 24.7509
rfoot -13.7321 -5.2093
rtoes -29.0117
lfemur -9.13843 -10.8163 -7.13823
ltibia 8.40857
lfoot -37.0356 17.8365
ltoes 27.0811
321
root 9.45082 16.5092 0.485753 -137.243 -55.7531 -201.692
lowerback 6.81542 3.01016 3.52995
upperback 0.819072 4.2528 1.31885
thorax -2.81048 2.0581 -0.994786
lowerneck -3.65857 9.92796 3.96706
upperneck -3.54541 12.864 -19.8414
head 1.20404 6.22912 -6.19452
rclavicle -3.81667e-014 7.31528e-014
rhumerus -17.325 41.5466 -103.372
rradius 96.7579
rwrist 6.03724
rhand -18.4097 -33.9735
rfingers 7.12502
rthumb 7.87494 -63.8069
lclavicle -3.81667e-014 7.31528e-014
lhumerus -42.6621 42.1164 43.5363
lradius 52.8564
lwrist 39.7819
lhand -53.6404 -31.853
lfingers 7.12502
lthumb -26.079 -3.62336
rfemur -37.3312 4.49326 -2.86328
rtibia 24.7472
rfoot -13.7587 -5.24604
rtoes -28.511
lfemur -9.19684 -10.9525 -7.27946
ltibia 8.42985
lfoot -37.0624 17.928
ltoes 26.7553
322
root 9.46108 16.5076 0.486677 -137.221 -55.8431 -201.724
lowerback 6.75571 2.93843 3.54976
upperback 0.860748 4.15436 1.37223
thorax -2.74056 2.01015 -0.937755
lowerneck -3.69612 9.96827 3.94297
upperneck -3.59133 12.9103 -19.9611
head 1.21047 6.24961 -6.22303
rclavicle 2.22639e-014 -1.90833e-014
rhumerus -17.1453 41.797 -103.26
rradius 96.7077
rwrist 5.87561
rhand -18.7803 -33.6019
rfingers 7.12502
rthumb 7.51725 -63.4483
lclavicle 2.22639e-014 -1.90833e-014
lhumerus -42.815 42.1435 43.4482
lradius 52.9485
lwrist 39.9847
lhand -53.6335 -32.3489
lfingers 7.12502
lthumb -26.0724 -4.11835
rfemur -37.3253 4.44567 -2.80909
rtibia 24.755
rfoot -13.7619 -5.29266
rtoes -28.5767
lfemur -9.25516 -11.0151 -7.20488
ltibia 8.45589
lfoot -37.0153 18.0377
ltoes 26.4281
323
root 9.46977 16.5071 0.4878 -137.198 -55.8913 -201.831
lowerback 6.70386 2.89557 3.39623
upperback 0.951596 4.08071 1.50341
thorax -2.64095 1.97664 -0.705947
lowerneck -3.85846 9.99475 3.89803
upperneck -3.514 12.9577 -20.177
head 1.28017 6.25418 -6.26758
rclavicle -9.54166e-015 -1.90833e-014
rhumerus -16.9566 42.121 -102.996
rradius 96.7111
rwrist 5.64544
rhand -19.3466 -33.8268
rfingers 7.12502
rthumb 6.97056 -63.6921
lclavicle -9.54166e-015 -1.90833e-014
lhumerus -42.9258 42.3098 43.4961
lradius 52.973
lwrist 40.0538
lhand -53.5918 -32.464
lfingers 7.12502
lthumb -26.0326 -4.22757
rfemur -37.2271 4.46419 -2.82027
rtibia 24.7245
rfoot -13.757 -5.37547
rtoes -28.9922
lfemur -9.22294 -11.0418 -7.22758
ltibia 8.45116
lfoot -37.0163 18.048
ltoes 26.4769
324
root 9.4792 16.5075 0.48893 -136.949 -55.7815 -202.235
lowerback 6.75491 2.91918 3.03265
upperback 0.975373 4.08914 1.51446
thorax -2.67097 1.98474 -0.496198
lowerneck -3.90131 9.98877 4.04143
upperneck -3.41192 12.9643 -20.3596
head 1.34245 6.24524 -6.33969
rclavicle 9.54166e-015 2.22639e-014
rhumerus -17.0117 42.1672 -102.919
rradius 96.7347
rwrist 5.6609
rhand -19.7042 -34.792
rfingers 7.12502
rthumb 6.62539 -64.6683
lclavicle 9.54166e-015 2.22639e-014
lhumerus -42.901 42.335 43.6095
lradius 52.9488
lwrist 39.9852
lhand -53.6824 -31.98
lfingers 7.12502
lthumb -26.1193 -3.7563
rfemur -37.1311 4.47652 -3.10962
rtibia 24.7058
rfoot -13.7267 -5.46643
rtoes -29.2841
lfemur -9.16814 -11.1314 -7.53192
ltibia 8.44336
lfoot -37.0019 18.1941
ltoes 26.446
325
root 9.49044 16.5092 0.489951 -136.85 -55.6679 -202.479
lowerback 6.92523 2.9664 2.86945
upperback 0.938849 4.14875 1.43606
thorax -2.80786 2.01448 -0.502457
lowerneck -3.79945 9.94802 4.32086
upperneck -3.30897 12.9236 -20.4333
head 1.37526 6.22454 -6.41094
rclavicle 3.65764e-014 2.22639e-014
rhumerus -17.2565 42.0276 -103.131
rradius 96.7289
rwrist 5.81698
rhand -19.8548 -35.403
rfingers 7.12502
rthumb 6.48 -65.2839
lclavicle 3.65764e-014 2.22639e-014
lhumerus -42.8277 42.2148 43.6206
lradius 52.8657
lwrist 39.8781
lhand -53.7271 -31.8048
lfingers 7.12502
lthumb -26.162 -3.58743
rfemur -37.0918 4.48178 -3.29058
rtibia 24.7448
rfoot -13.7004 -5.47554
rtoes -29.5617
lfemur -9.10088 -11.2232 -7.74485
ltibia 8.45583
lfoot -37.0663 18.1435
ltoes 26.4847
326
root 9.50109 16.5098 0.492238 -136.98 -55.723 -202.427
lowerback 7.06225 2.94182 2.99751
upperback 0.906288 4.1317 1.43226
thorax -2.90907 2.00238 -0.584792
lowerneck -3.77479 9.98955 4.27225
upperneck -3.21647 12.9974 -20.4407
head 1.40414 6.25767 -6.39939
rclavicle -4.29375e-014 4.77083e-014
rhumerus -17.474 42.1011 -103.339
rradius 96.7565
rwrist 5.87081
rhand -19.9748 -35.2679
rfingers 7.12502
rthumb 6.36415 -65.1523
lclavicle -4.29375e-014 4.77083e-014
lhumerus -42.9146 42.2044 43.4581
lradius 52.7489
lwrist 39.8048
lhand -53.6146 -32.2083
lfingers 7.12502
lthumb -26.0544 -3.97502
rfemur -37.0493 4.47606 -3.19067
rtibia 24.7683
rfoot -13.6663 -5.47301
rtoes -30.0153
lfemur -9.07039 -11.2802 -7.66848
ltibia 8.4803
lfoot -37.1929 17.9158
ltoes 26.7666
327
root 9.50955 16.5069 0.495581 -137.117 -55.8645 -202.294
lowerback 7.06393 2.90694 3.20051
upperback 0.891912 4.10083 1.47624
thorax -2.91472 1.98386 -0.649835
lowerneck -3.97357 10.0348 3.87057
upperneck -3.01083 13.1019 -20.1424
head 1.45802 6.29267 -6.224
rclavicle -2.06736e-014 4.45278e-014
rhumerus -17.507 42.2024 -103.29
rradius 96.8753
rwrist 5.69323
rhand -20.1223 -35.1323
rfingers 7.12502
rthumb 6.22172 -65.0209
lclavicle -2.06736e-014 4.45278e-014
lhumerus -42.9627 42.2293 43.3714
lradius 52.6631
lwrist 39.801
lhand -53.4102 -32.3282
lfingers 7.12502
lthumb -25.8586 -4.06624
rfemur -37.0416 4.42785 -3.00072
rtibia 24.794
rfoot -13.6446 -5.50669
rtoes -30.4058
lfemur -9.10858 -11.3028 -7.47381
ltibia 8.50909
lfoot -37.2359 17.8439
ltoes 26.8989
328
root 9.51694 16.5038 0.497256 -137.111 -55.908 -202.313
lowerback 7.01631 2.92934 3.25563
upperback 0.889373 4.13257 1.4603
thorax -2.88467 1.99961 -0.696864
lowerneck -3.85809 10.0402 3.77636
upperneck -3.11032 13.0928 -20.0967
head 1.39821 6.30169 -6.20494
rclavicle -1.27222e-014 -2.22639e-014
rhumerus -17.4356 42.1277 -103.161
rradius 96.9729
rwrist 5.46015
rhand -20.1092 -35.1161
rfingers 7.12502
rthumb 6.23437 -65.0043
lclavicle -1.27222e-014 -2.22639e-014
lhumerus -42.8922 42.1762 43.4292
lradius 52.6531
lwrist 39.8341
lhand -53.2877 -32.4331
lfingers 7.12502
lthumb -25.7413 -4.15414
rfemur -37.0492 4.41441 -2.9808
rtibia 24.8115
rfoot -13.6578 -5.55002
rtoes -30.5065
lfemur -9.12298 -11.3033 -7.42934
ltibia 8.49968
lfoot -37.1544 18.02
ltoes 26.8015
329
root 9.52447 16.5035 0.49825 -136.897 -55.8782 -202.531
lowerback 6.93519 2.96256 3.18967
upperback 0.879727 4.1689 1.37874
thorax -2.8468 2.02001 -0.742914
lowerneck -3.56965 9.96437 4.02701
upperneck -3.37553 12.9397 -20.1025
head 1.27205 6.2577 -6.27782
rclavicle -2.22639e-014 6.36111e-015
rhumerus -17.3336 42.0379 -103.105
rradius 96.9779
rwrist 5.30356
rhand -19.4058 -35.0079
rfingers 7.12502
rthumb 6.91343 -64.875
lclavicle -2.22639e-014 6.36111e-015
lhumerus -42.7854 42.0711 43.4984
lradius 52.6743
lwrist 39.8595
lhand -53.3691 -32.4766
lfingers 7.12502
lthumb -25.8193 -4.2089
rfemur -37.0812 4.40077 -3.15747
rtibia 24.7989
rfoot -13.7064 -5.54984
rtoes -30.0435
lfemur -9.18897 -11.3162 -7.54505
ltibia 8.47873
lfoot -37.032 18.2736
ltoes 26.7201
330
root 9.53179 16.5044 0.498948 -136.765 -55.9437 -202.615
lowerback 6.8232 2.95571 3.23119
upperback 0.873266 4.1586 1.37501
thorax -2.7881 2.0157 -0.762523
lowerneck -3.39242 9.95996 4.17316
upperneck -3.55573 12.8995 -20.2861
head 1.20973 6.25416 -6.37274
rclavicle 6.67916e-014 7.95139e-014
rhumerus -17.2363 42.0824 -103.038
rradius 96.9072
rwrist 5.3061
rhand -18.9613 -35.1773
rfingers 7.12502
rthumb 7.34248 -65.0299
lclavicle 6.67916e-014 7.95139e-014
lhumerus -42.799 42.0624 43.5478
lradius 52.7494
lwrist 39.839
lhand -53.4828 -31.9621
lfingers 7.12502
lthumb -25.9282 -3.71037
rfemur -37.1301 4.36677 -3.19616
rtibia 24.8056
rfoot -13.7746 -5.5161
rtoes -29.3107
lfemur -9.30717 -11.3752 -7.5167
ltibia 8.48822
lfoot -36.9595 18.4191
ltoes 26.6402
331
root 9.5409 16.5034 0.497045 -136.84 -56.0539 -202.559
lowerback 6.78839 2.94239 3.29797
upperback 0.898 4.14334 1.48309
thorax -2.74689 2.0073 -0.684339
lowerneck -3.56796 10.0214 3.663
upperneck -3.32957 13.0304 -19.9512
head 1.25845 6.30386 -6.1689
rclavicle 1.59028e-014 3.49861e-014
rhumerus -17.0258 42.4459 -102.607
rradius 96.7805
rwrist 5.24652
rhand -19.3251 -35.7628
rfingers 7.12502
rthumb 6.99137 -65.6274
lclavicle 1.59028e-014 3.49861e-014
lhumerus -42.9169 42.1848 43.6495
lradius 52.8575
lwrist 39.7672
lhand -53.4441 -31.452
lfingers 7.12502
lthumb -25.8911 -3.19483
rfemur -37.1088 4.38877 -3.08013
rtibia 24.8425
rfoot -13.8208 -5.53146
rtoes -29.2904
lfemur -9.31465 -11.4544 -7.37927
ltibia 8.49143
lfoot -36.8614 18.6531
ltoes 26.5138
332
root 9.55109 16.5016 0.494558 -136.847 -56.0869 -202.634
lowerback 6.83292 2.99113 3.30915
upperback 0.901175 4.21059 1.49593
thorax -2.76636 2.04001 -0.685493
lowerneck -3.52926 9.98154 3.76543
upperneck -3.2647 12.9815 -20.2101
head 1.29258 6.27251 -6.26652
rclavicle -3.33958e-014 -6.04305e-014
rhumerus -16.6982 42.8504 -101.927
rradius 96.6875
rwrist 4.83313
rhand -19.8811 -36.2261
rfingers 7.12502
rthumb 6.45461 -66.1077
lclavicle -3.33958e-014 -6.04305e-014
lhumerus -42.7708 42.0593 43.8794
lradius 52.8882
lwrist 39.7215
lhand -53.3738 -31.266
lfingers 7.12502
lthumb -25.8237 -2.99903
rfemur -37.069 4.42762 -3.09195
rtibia 24.8788
rfoot -13.857 -5.55338
rtoes -29.2384
lfemur -9.29343 -11.5441 -7.36516
ltibia 8.51849
lfoot -36.8864 18.6532
ltoes 26.3964
333
root 9.56081 16.5016 0.495249 -136.767 -56.1405 -202.745
lowerback 6.89491 3.03364 3.37672
upperback 0.838443 4.27736 1.43006
thorax -2.85362 2.07099 -0.802053
lowerneck -3.42576 9.91404 4.19878
upperneck -3.19211 12.8957 -20.4866
head 1.33762 6.22659 -6.42688
rclavicle 4.77083e-014 -2.22639e-014
rhumerus -16.8297 42.6212 -102.01
rradius 96.7362
rwrist 4.77636
rhand -19.8417 -36.1292
rfingers 7.12502
rthumb 6.49265 -66.0097
lclavicle 4.77083e-014 -2.22639e-014
lhumerus -42.5005 41.7305 44.0494
lradius 52.8088
lwrist 39.7105
lhand -53.4384 -31.1954
lfingers 7.12502
lthumb -25.8856 -2.93738
rfemur -37.0719 4.44935 -3.15854
rtibia 24.8897
rfoot -13.8953 -5.59213
rtoes -28.6202
lfemur -9.3718 -11.7148 -7.34897
ltibia 8.58493
lfoot -37.1749 18.1685
ltoes 26.5955
334
root 9.57 16.5029 0.499683 -136.7 -56.2476 -202.829
lowerback 6.94119 3.01346 3.42135
upperback 0.793101 4.25842 1.46103
thorax -2.92619 2.05931 -0.79768
lowerneck -3.39544 9.90018 4.51338
upperneck -3.10955 12.8889 -20.6741
head 1.3922 6.21685 -6.53294
rclavicle -8.74653e-014 -6.36111e-014
rhumerus -17.3354 42.0849 -102.651
rradius 96.8071
rwrist 5.33124
rhand -18.9165 -35.4439
rfingers 7.12502
rthumb 7.38579 -65.295
lclavicle -8.74653e-014 -6.36111e-014
lhumerus -42.464 41.6261 44.092
lradius 52.7575
lwrist 39.6819
lhand -53.6079 -31.1886
lfingers 7.12502
lthumb -26.0479 -2.9544
rfemur -37.0822 4.3173 -3.12645
rtibia 24.9236
rfoot -13.8462 -5.66322
rtoes -29.1359
lfemur -9.45993 -11.8659 -7.30015
ltibia 8.60353
lfoot -37.4938 17.6034
ltoes 27.2604
